<!-- Variante A: Logo original + 3 figuritas abajo (comunidad) -->
<svg xmlns="http://www.w3.org/2000/svg" viewBox="0 0 100 110" width="512" height="563">
  <!-- Logo original Pathway (idéntico) -->
  <polygon points="10,82 32,52 54,82" fill="#52B788"/>
  <polygon points="34,82 58,28 82,82" fill="#2D6A4F"/>
  <circle cx="58" cy="22" r="5" fill="#E9C46A"/>

  <!-- 3 figuritas humanas debajo (la comunidad) -->
  <!-- Persona 1 -->
  <circle cx="22" cy="92" r="3" fill="#52B788"/>
  <path d="M 18 102 Q 18 96 22 96 Q 26 96 26 102 L 26 105 L 18 105 Z" fill="#52B788"/>
  <!-- Persona 2 (centro, oscura — vos) -->
  <circle cx="42" cy="92" r="3.2" fill="#2D6A4F"/>
  <path d="M 38 102 Q 38 96 42 96 Q 46 96 46 102 L 46 105 L 38 105 Z" fill="#2D6A4F"/>
  <!-- Persona 3 -->
  <circle cx="62" cy="92" r="3" fill="#52B788"/>
  <path d="M 58 102 Q 58 96 62 96 Q 66 96 66 102 L 66 105 L 58 105 Z" fill="#52B788"/>
  <!-- Persona 4 -->
  <circle cx="82" cy="92" r="3" fill="#2D6A4F"/>
  <path d="M 78 102 Q 78 96 82 96 Q 86 96 86 102 L 86 105 L 78 105 Z" fill="#2D6A4F"/>
</svg>
